<?xml version="1.0" standalone="no"?><!DOCTYPE svg PUBLIC "-//W3C//DTD SVG 1.1//EN" "http://www.w3.org/Graphics/SVG/1.1/DTD/svg11.dtd"><svg t="1765803740303" class="icon" viewBox="0 0 1024 1024" version="1.1" xmlns="http://www.w3.org/2000/svg" p-id="9345" width="128" height="128" xmlns:xlink="http://www.w3.org/1999/xlink"><path d="M836.23 840.96c-1.55 0-3.13-0.3-4.65-0.95-20.25-8.53-496.68-211.84-554.96-465.18-1.48-6.46 2.55-12.9 9.01-14.38 6.44-1.43 12.9 2.55 14.38 9.01 55.55 241.49 536.04 446.4 540.88 448.45 6.11 2.57 8.97 9.61 6.4 15.71-1.93 4.58-6.38 7.34-11.06 7.34z" p-id="9346"></path><path d="M570.6 700.2c-5.17 0-9.94-3.37-11.5-8.58-1.89-6.33 1.7-12.99 8.01-14.91 1.32-0.42 98-32.72 235.14-238.42 3.67-5.52 11.12-7.03 16.64-3.33 5.51 3.67 7 11.13 3.33 16.64-143.21 214.82-243.97 246.84-248.19 248.1-1.14 0.34-2.29 0.5-3.43 0.5z" p-id="9347"></path><path d="M429.73 323.94c-5.47-4.47-12.7-7.77-20.7-10.07 4.27-1.93 8.13-4.14 11.29-6.7 22.94-18.56 30.35-80.13 11.79-103.08-18.56-22.94-56.06 1.44-79 20-3.36 2.72-6.41 6.24-9.18 10.2-0.34-2.13-0.79-4.18-1.38-6.1-8.77-28.18-68.98-52.08-97.16-43.32s-13.65 46.88-4.88 75.06c3.49 11.22 12.77 22.43 23.83 31.72-13-5.47-26.81-8.64-37.74-7.29-29.29 3.6-63.54 58.59-59.94 87.88 3.6 29.29 43.7 21.78 72.98 18.18 10.59-1.3 22.05-7.32 32.39-15.32-9.83 11.22-17.7 24.23-19.77 35.68-5.25 29.04 24.26 77.85 53.3 83.1 29.04 5.25 46.61-35.05 51.86-64.08 1.75-9.67-0.11-21.21-3.98-32.54 2.7 3.67 5.6 6.9 8.67 9.42 22.85 18.67 76.68 11.74 95.36-11.12 18.68-22.83-4.88-52.95-27.74-71.62z m-99.92 12.67c-7.09-2.43-17.97 2.29-28.88 10.6 9.69-11.05 16.28-22.7 16.51-30.71 0.16-5.66-4.25-12.19-11.21-18.48 7.36 2.94 14.06 4.36 18.95 3.62 4.8-0.73 9.64-4.87 14.04-11.05 0.6 3.52 1.53 6.58 2.87 8.87 1.81 3.09 5.35 5.52 10.04 7.31-0.18 0.15-0.43 0.29-0.61 0.44-8.14 7.35-6.91 29.19-0.04 49.92-7.06-10.41-14.98-18.23-21.67-20.52zM742.85 638.9c-4.37-3.57-10.16-6.21-16.56-8.06 3.41-1.54 6.5-3.31 9.03-5.36 18.35-14.85 24.28-64.11 9.43-82.46-14.85-18.35-44.85 1.15-63.2 16-2.69 2.18-5.13 4.99-7.35 8.16-0.27-1.71-0.63-3.35-1.1-4.88-7.01-22.54-55.19-41.66-77.73-34.65-22.54 7.01-10.92 37.5-3.9 60.05 2.79 8.97 10.22 17.94 19.06 25.38-10.4-4.38-21.45-6.91-30.19-5.84-23.43 2.88-50.83 46.87-47.95 70.3 2.88 23.43 34.96 17.43 58.39 14.54 8.47-1.04 17.64-5.85 25.91-12.25-7.87 8.98-14.16 19.39-15.82 28.55-4.2 23.23 19.41 62.28 42.64 66.48 23.23 4.2 37.29-28.04 41.49-51.27 1.4-7.73-0.09-16.97-3.18-26.03 2.16 2.94 4.48 5.52 6.94 7.53 18.28 14.94 61.35 9.39 76.28-8.89 14.94-18.28-3.91-42.37-22.19-57.3z m-79.94 10.13c-5.67-1.94-14.38 1.83-23.1 8.48 7.76-8.84 13.02-18.16 13.2-24.56 0.13-4.53-3.4-9.76-8.97-14.79 5.89 2.35 11.25 3.49 15.16 2.89 3.84-0.58 7.71-3.89 11.23-8.84 0.48 2.82 1.22 5.26 2.3 7.1 1.45 2.47 4.28 4.42 8.03 5.85-0.15 0.12-0.35 0.23-0.49 0.35-6.51 5.88-5.53 23.35-0.03 39.93-5.64-8.32-11.98-14.58-17.33-16.41zM527.97 545.85c-3.28-2.68-7.62-4.66-12.42-6.04 2.56-1.16 4.88-2.48 6.78-4.02 13.76-11.14 18.21-48.08 7.07-61.85-11.14-13.76-33.64 0.86-47.4 12-2.02 1.63-3.84 3.74-5.51 6.12-0.21-1.28-0.47-2.51-0.83-3.66-5.26-16.91-41.39-31.25-58.3-25.99-16.91 5.26-8.19 28.13-2.93 45.03 2.09 6.73 7.66 13.46 14.3 19.03-7.8-3.28-16.09-5.18-22.64-4.38-17.57 2.16-38.13 35.16-35.96 52.73 2.16 17.57 26.22 13.07 43.79 10.91 6.36-0.78 13.23-4.39 19.44-9.19-5.9 6.73-10.62 14.54-11.86 21.41-3.15 17.42 14.56 46.71 31.98 49.86 17.42 3.15 27.96-21.03 31.12-38.45 1.05-5.8-0.07-12.72-2.39-19.52 1.62 2.2 3.36 4.14 5.2 5.65 13.71 11.2 46.01 7.04 57.21-6.67 11.2-13.7-2.94-31.77-16.65-42.97z m-59.96 7.6c-4.25-1.46-10.78 1.37-17.33 6.36 5.82-6.63 9.77-13.62 9.9-18.42 0.1-3.4-2.55-7.32-6.73-11.09 4.42 1.77 8.43 2.62 11.37 2.17 2.88-0.44 5.78-2.92 8.42-6.63 0.36 2.11 0.92 3.95 1.72 5.32 1.09 1.86 3.21 3.31 6.02 4.39-0.11 0.09-0.26 0.17-0.36 0.27-4.88 4.41-4.14 17.51-0.02 29.95-4.22-6.26-8.98-10.95-12.99-12.32zM894.83 436.96c-3.61-2.95-8.38-5.13-13.66-6.65 2.82-1.27 5.37-2.73 7.45-4.42 15.14-12.25 20.03-52.89 7.78-68.03s-37 0.95-52.14 13.2c-2.22 1.8-4.23 4.12-6.06 6.73-0.23-1.41-0.52-2.76-0.91-4.02-5.79-18.6-45.53-34.37-64.12-28.59s-9.01 30.94-3.22 49.54c2.3 7.4 8.43 14.8 15.73 20.94-8.58-3.61-17.7-5.7-24.91-4.81-19.33 2.38-41.94 38.67-39.56 58 2.38 19.33 28.84 14.38 48.17 12 6.99-0.86 14.55-4.83 21.38-10.11-6.49 7.41-11.68 15.99-13.05 23.55-3.47 19.16 16.01 51.38 35.17 54.85 19.17 3.47 30.76-23.13 34.23-42.29 1.15-6.38-0.07-14-2.62-21.48 1.78 2.42 3.7 4.56 5.73 6.22 15.08 12.32 50.61 7.75 62.93-7.34s-3.24-34.97-18.32-47.29z m-65.95 8.36c-4.68-1.6-11.86 1.51-19.06 7 6.4-7.3 10.74-14.98 10.89-20.27 0.11-3.74-2.81-8.05-7.4-12.2 4.86 1.94 9.28 2.88 12.5 2.39 3.17-0.48 6.36-3.21 9.26-7.29 0.4 2.32 1.01 4.34 1.89 5.86 1.19 2.04 3.53 3.65 6.62 4.83-0.12 0.1-0.29 0.19-0.4 0.29-5.37 4.85-4.56 19.26-0.03 32.94-4.63-6.87-9.86-12.04-14.27-13.55z" fill="#FFBBA6" p-id="9348"></path><path d="M250.62 530.36c-2.37 0-4.77-0.22-7.19-0.65-16.95-3.07-34.28-16.94-47.53-38.06-12.69-20.21-18.46-42.27-15.43-58.99 0.38-2.1 0.91-4.25 1.59-6.44-0.31 0.04-0.63 0.09-0.94 0.12-2.1 0.26-4.25 0.54-6.45 0.82-13.52 1.75-28.85 3.73-42.27 2.46-29.68-2.8-36.33-21.19-37.64-31.91-2.08-16.9 5.22-39.94 19.53-61.64 7.2-10.92 26.56-36.63 50.86-39.61 2.37-0.29 4.84-0.42 7.42-0.39-1.45-2.87-2.62-5.73-3.51-8.56-0.63-2.02-1.29-4.09-1.96-6.2-4.13-12.99-8.81-27.72-9.95-41.15-2.53-29.71 14.38-39.52 24.69-42.73 16.26-5.06 40.23-1.98 64.14 8.23 9.83 4.2 30.84 14.64 42.15 31.08 15.33-12.12 29.4-20.66 41.87-25.41 27.79-10.59 43.32-0.82 51.46 9.23 10.67 13.19 15.26 36.41 12.26 62.12-2.57 22.05-10.12 41.18-20.62 52.86 1.5 0.99 2.92 2.04 4.25 3.12 8.47 6.92 23.96 21.07 32.56 38.14 2.98 5.92 0.61 13.13-5.31 16.12-5.92 2.98-13.13 0.61-16.12-5.31-4.9-9.71-14.24-20.49-26.32-30.36-1.9-1.55-4.25-3-6.99-4.31-2.78-1.33-5.95-2.51-9.44-3.52a12.015 12.015 0 0 1-8.65-10.67c-0.36-5.02 2.44-9.73 7.03-11.8 1.81-0.82 3.46-1.67 4.92-2.52 1.43-0.84 2.7-1.71 3.77-2.57 8.18-6.62 14.88-23.08 17.08-41.95 2.2-18.85-0.58-36.21-7.08-44.24-1.88-2.33-6.89-8.51-24.26-1.9-10.63 4.05-23.73 12.24-37.87 23.68-1.12 0.9-2.26 2.01-3.4 3.29-1.15 1.29-2.33 2.8-3.5 4.47-2.81 4-7.76 5.89-12.51 4.8a12.02 12.02 0 0 1-9.16-9.79c-0.14-0.87-0.29-1.68-0.46-2.42-0.16-0.73-0.34-1.41-0.53-2.02-2.89-9.3-16.46-20.31-34.55-28.04-17.97-7.68-37.1-10.64-47.58-7.38-3.65 1.14-9.17 2.85-7.9 17.77 0.92 10.76 5.17 24.13 8.91 35.92 0.69 2.16 1.36 4.27 2 6.34 1.24 3.99 3.64 8.3 7.12 12.82 3.46 4.49 7.82 8.96 12.97 13.29a12.003 12.003 0 0 1 2.52 15.44c-3.1 5.06-9.43 7.1-14.89 4.8-5.93-2.5-11.94-4.4-17.38-5.5-5.41-1.1-10.33-1.42-14.24-0.94-9.67 1.19-22.92 12.57-33.75 29-10.76 16.32-17.08 34.6-15.74 45.5 0.47 3.8 1.17 9.54 16.08 10.94 10.75 1.01 24.66-0.78 36.94-2.37 2.24-0.29 4.45-0.57 6.59-0.84 3.75-0.46 7.96-1.82 12.5-4.03s9.26-5.2 14.01-8.87c4.89-3.78 11.85-3.23 16.08 1.27 4.23 4.5 4.36 11.48 0.29 16.13-4.52 5.16-8.46 10.62-11.39 15.77-2.92 5.15-4.86 10.04-5.6 14.14-1.93 10.66 2.84 27.13 12.15 41.96 9.4 14.97 21.46 25.39 31.48 27.2 2.96 0.54 11.96 2.16 22.72-14.02 6.78-10.2 12.46-25.3 15.19-40.39 0.62-3.41 0.63-7.42 0.03-11.93-0.6-4.53-1.8-9.44-3.55-14.6-1.91-5.6 0.55-11.77 5.8-14.51a11.998 11.998 0 0 1 15.22 3.52c1.13 1.54 2.27 2.94 3.39 4.16 0.93 1.02 1.86 1.93 2.76 2.7 1.08 0.31 5.34 1.11 17.5-0.76 9.73-1.49 21.06-4.15 31.05-6.5 9.89-2.32 18.44-4.33 24.61-5.07 6.58-0.79 12.56 3.89 13.35 10.47 0.8 6.58-3.89 12.56-10.47 13.35-4.86 0.59-13.19 2.54-22.01 4.61-22.59 5.3-40.39 9.06-53.22 8.15 0.04 3.75-0.24 7.32-0.85 10.67-3.33 18.42-10.19 36.43-18.83 49.41-10.87 16.33-24.8 25-39.8 25z" fill="#9E1919" p-id="9349"></path><path d="M321.97 350.64c-3.02-3.82-8.57-4.48-12.39-1.46-0.74 0.58-1.25 1.32-1.75 2.06l-24.72-7.17 19.22-18.46c1.4 0.56 2.89 0.9 4.49 0.67 4.82-0.7 8.16-5.18 7.46-10-0.7-4.82-5.18-8.16-10-7.46-4.82 0.7-8.16 5.18-7.46 10 0.1 0.66 0.42 1.21 0.65 1.81l-19.18 18.42-5.77-23.43c1.15-0.92 2.16-2.03 2.75-3.5 1.8-4.53-0.41-9.66-4.93-11.46-4.53-1.8-9.66 0.41-11.46 4.93-1.8 4.53 0.41 9.66 4.93 11.46 0.65 0.26 1.32 0.26 1.99 0.36l5.74 23.3-25.92-7.51c-0.21-1.5-0.66-2.97-1.67-4.24-3.02-3.82-8.57-4.48-12.39-1.46-3.82 3.02-4.48 8.57-1.46 12.39 3.02 3.82 8.57 4.48 12.39 1.46 0.52-0.41 0.83-0.96 1.23-1.45l25.87 7.5-16.64 15.97a8.742 8.742 0 0 0-3.43-0.19c-4.82 0.7-8.16 5.18-7.46 10 0.7 4.82 5.18 8.16 10 7.46 4.82-0.7 8.16-5.18 7.46-10-0.16-1.07-0.56-2.03-1.05-2.92l15.94-15.3 5.48 22.24c-1.31 0.95-2.45 2.13-3.09 3.74-1.8 4.53 0.41 9.66 4.93 11.46 4.53 1.8 9.66-0.41 11.46-4.93 1.8-4.53-0.41-9.66-4.93-11.46-0.51-0.2-1.04-0.18-1.57-0.28l-5.52-22.43 25.34 7.35c0.29 1.22 0.78 2.41 1.61 3.46 3.02 3.82 8.57 4.48 12.39 1.46s4.48-8.57 1.46-12.39z" fill="#C72B2B" p-id="9350"></path><path d="M599.48 799.21c-2.3 0-4.36-0.23-6.1-0.55-14.22-2.57-28.67-14.07-39.63-31.53-10.46-16.67-15.2-34.94-12.68-48.89 0.11-0.63 0.24-1.26 0.39-1.9l-2.36 0.3c-10.94 1.41-23.34 3.01-34.34 1.98-25.42-2.4-31.13-18.33-32.27-27.62-1.73-14.07 4.25-33.11 16-50.93 5.94-9.01 21.96-30.24 42.4-32.75 0.83-0.1 1.67-0.18 2.53-0.24-0.53-1.28-1-2.56-1.39-3.83-0.5-1.61-1.03-3.26-1.56-4.94-3.34-10.52-7.13-22.43-8.07-33.45-2.17-25.44 12.49-33.9 21.43-36.68 13.54-4.21 33.33-1.72 52.96 6.67 7.67 3.27 23.58 11.17 33.25 23.66 11.7-9.04 22.51-15.48 32.17-19.16 24.82-9.46 38.15 1.03 43.89 8.12 12.88 15.92 11.51 41.31 10.33 51.48-1.97 16.88-7.54 31.73-15.36 41.56 0.48 0.36 0.94 0.72 1.4 1.09 8.45 6.91 19.95 17.94 26.67 31.29 2.98 5.92 0.61 13.13-5.31 16.12s-13.13 0.6-16.12-5.31c-3.77-7.48-11.03-15.82-20.43-23.51-1.38-1.12-3.09-2.18-5.11-3.15-2.1-1-4.52-1.9-7.18-2.67a12.001 12.001 0 0 1-1.62-22.47c1.37-0.62 2.61-1.25 3.7-1.9 1.05-0.62 1.96-1.24 2.73-1.86 5.98-4.84 11.13-17.69 12.79-31.97 1.66-14.25-0.41-27.75-5.15-33.61-1.21-1.49-4.42-5.46-16.69-0.79-8.27 3.15-18.52 9.57-29.64 18.57-0.79 0.64-1.62 1.44-2.44 2.36-0.86 0.97-1.75 2.09-2.63 3.35a12 12 0 0 1-12.51 4.81 11.995 11.995 0 0 1-9.16-9.78c-0.1-0.65-0.22-1.26-0.34-1.8-0.12-0.52-0.24-1-0.37-1.42-1.73-5.57-10.54-14.21-26.3-20.94-13.68-5.84-28.65-8.23-36.41-5.82-2.45 0.76-5.5 1.71-4.64 11.72 0.71 8.34 4.07 18.9 7.03 28.22 0.55 1.73 1.09 3.43 1.6 5.08 0.9 2.88 2.73 6.16 5.3 9.5 2.67 3.46 6.04 6.91 10.02 10.26a11.99 11.99 0 0 1 2.51 15.44c-3.09 5.06-9.42 7.1-14.89 4.8-4.6-1.94-9.25-3.41-13.45-4.26-4.07-0.83-7.74-1.08-10.62-0.72-5.79 0.71-15.86 7.84-25.29 22.14-8.19 12.42-13.21 26.72-12.22 34.79 0.31 2.54 0.7 5.71 10.71 6.66 8.33 0.79 19.32-0.63 29.01-1.88 1.8-0.23 3.57-0.46 5.29-0.67 2.74-0.34 5.85-1.35 9.24-3 3.49-1.7 7.12-4 10.79-6.84 4.89-3.78 11.85-3.23 16.08 1.27 4.23 4.5 4.36 11.48 0.29 16.13-3.51 4.01-6.56 8.24-8.83 12.22-2.21 3.89-3.66 7.54-4.21 10.55-1.44 7.97 2.24 20.48 9.39 31.86 7.06 11.25 16.32 19.36 23.58 20.68 1.98 0.36 8.02 1.45 15.75-10.18 5.25-7.9 9.66-19.64 11.79-31.41 0.45-2.48 0.45-5.44 0.01-8.81-0.46-3.46-1.38-7.24-2.74-11.22-1.91-5.6 0.55-11.76 5.8-14.51a11.998 11.998 0 0 1 15.22 3.52c0.86 1.17 1.72 2.22 2.55 3.13 0.8 0.87 1.58 1.62 2.32 2.23 5.87 4.8 17.79 6.91 30.36 5.39 6.58-0.8 12.56 3.89 13.35 10.47 0.8 6.58-3.89 12.56-10.47 13.35-11.83 1.43-22.94 0.59-32.35-2.31a47.7 47.7 0 0 1-0.43 3.02c-2.72 15.05-8.34 29.79-15.42 40.43-11.49 17.28-24.62 21.06-33.9 21.06z" fill="#9E1919" p-id="9351"></path><path d="M668.33 654.14c-3.03-3.83-8.59-4.49-12.42-1.46-0.74 0.58-1.25 1.32-1.75 2.07l-24.78-7.18 19.27-18.5c1.4 0.56 2.9 0.9 4.5 0.67 4.83-0.7 8.18-5.19 7.48-10.03-0.7-4.83-5.19-8.18-10.03-7.48-4.83 0.7-8.18 5.19-7.47 10.03 0.1 0.66 0.42 1.22 0.65 1.82l-19.23 18.46-5.78-23.49c1.15-0.92 2.17-2.04 2.75-3.51 1.81-4.54-0.41-9.68-4.94-11.49-4.54-1.81-9.68 0.41-11.49 4.95-1.81 4.54 0.41 9.68 4.94 11.49 0.66 0.26 1.33 0.26 1.99 0.36l5.75 23.36-25.98-7.53c-0.21-1.5-0.66-2.98-1.67-4.25-3.03-3.83-8.59-4.49-12.42-1.46-3.83 3.03-4.49 8.59-1.46 12.42 3.03 3.83 8.59 4.49 12.42 1.46 0.52-0.41 0.83-0.96 1.23-1.45l25.94 7.52-16.68 16.01a8.793 8.793 0 0 0-3.44-0.19c-4.83 0.7-8.18 5.19-7.47 10.03 0.7 4.83 5.19 8.18 10.03 7.48s8.18-5.19 7.48-10.03c-0.16-1.07-0.56-2.03-1.05-2.93l15.98-15.34 5.49 22.3c-1.31 0.95-2.46 2.13-3.1 3.75-1.81 4.54 0.41 9.68 4.94 11.49 4.54 1.81 9.68-0.41 11.49-4.94 1.81-4.54-0.41-9.68-4.94-11.49-0.52-0.21-1.04-0.18-1.57-0.28l-5.54-22.48 25.4 7.36c0.29 1.23 0.78 2.42 1.61 3.47 3.03 3.83 8.59 4.49 12.42 1.46s4.48-8.62 1.45-12.45z" fill="#C72B2B" p-id="9352"></path><path d="M420.49 684.09c-1.94 0-3.69-0.2-5.16-0.46-11.49-2.08-23.06-11.19-31.73-25.01-7.61-12.12-11.35-25.43-10.28-36.2-7.79 0.99-16.37 1.95-24.21 1.21-21.94-2.07-26.12-17.01-26.9-23.34-1.38-11.24 3.28-26.27 12.47-40.21 4.51-6.84 16.45-22.63 32.12-25.61-0.32-1.03-0.66-2.09-1-3.16-2.55-8.04-5.45-17.14-6.18-25.74-1.87-21.96 12.08-28.73 18.17-30.63 10.81-3.36 26.43-1.45 41.79 5.11 5.53 2.36 16.5 7.79 24.21 16.39 8.14-6.06 15.72-10.44 22.61-13.06 6.19-2.36 13.13 0.75 15.49 6.94 2.36 6.19-0.75 13.13-6.94 15.49-5.91 2.25-13.32 6.9-21.41 13.45-0.47 0.38-0.96 0.86-1.48 1.44-0.57 0.64-1.16 1.39-1.76 2.24a12 12 0 0 1-12.52 4.8 12.02 12.02 0 0 1-9.16-9.79c-0.06-0.4-0.14-0.79-0.22-1.17-0.07-0.3-0.14-0.59-0.22-0.83-1.09-3.51-7.64-9.39-18.03-13.83-10.77-4.6-20.85-5.62-25.24-4.26-0.76 0.23-1 0.44-1 0.45 0 0-0.73 1.17-0.38 5.22 0.5 5.92 2.97 13.67 5.14 20.51 0.41 1.3 0.82 2.58 1.21 3.83 0.57 1.82 1.77 3.96 3.49 6.19 1.84 2.38 4.29 4.88 7.07 7.23a11.99 11.99 0 0 1 2.51 15.44c-3.09 5.06-9.42 7.1-14.89 4.8-3.27-1.38-6.56-2.42-9.52-3.02-3.46-0.71-5.72-0.66-7-0.51-3.65 0.45-10.6 5.84-16.83 15.28-6.45 9.78-9.25 19.51-8.69 24.07 0.1 0.79 0.26 1.06 0.26 1.06 0.01 0 1.04 0.93 5.07 1.31 5.92 0.56 13.98-0.48 21.1-1.4 1.35-0.17 2.68-0.35 3.98-0.51 1.7-0.21 3.77-0.89 5.99-1.97 2.43-1.18 4.98-2.8 7.57-4.8 4.89-3.78 11.85-3.23 16.08 1.27 4.23 4.5 4.36 11.48 0.29 16.13-2.5 2.86-4.67 5.86-6.27 8.67-1.88 3.32-2.57 5.62-2.81 6.97-0.78 4.33 0.96 12.74 6.63 21.77 5.54 8.82 11.86 13.46 15.68 14.15 2.7 0.49 5.66-1.65 8.78-6.35 3.73-5.6 6.86-13.99 8.39-22.43 0.28-1.53 0.27-3.5-0.02-5.68-0.32-2.4-0.96-5.04-1.92-7.84-1.91-5.6 0.55-11.76 5.8-14.51a11.998 11.998 0 0 1 15.22 3.52c0.58 0.79 1.16 1.5 1.71 2.1 0.5 0.55 0.98 1.01 1.42 1.37 3.11 2.54 10.66 4.58 20.51 3.39 8.62-1.04 16.58-4.4 19.81-8.36 0.94-1.15 2.69-3.3-0.4-9.43-2.6-5.17-7.9-11.24-14.54-16.66-0.84-0.69-1.93-1.35-3.23-1.98-1.43-0.68-3.08-1.3-4.92-1.83a12 12 0 0 1-8.65-10.66 12 12 0 0 1 7.02-11.8c0.93-0.42 1.77-0.85 2.5-1.28 0.65-0.38 1.21-0.76 1.67-1.13 3.16-2.55 7.17-10.53 8.5-22 0.77-6.58 6.73-11.31 13.31-10.53 6.58 0.77 11.3 6.73 10.53 13.31-0.73 6.27-3.09 19.81-10.35 30.32 6.42 5.4 14.61 13.58 19.58 23.44 6.52 12.93 5.65 25.52-2.44 35.43-7.32 8.96-20.26 15.15-35.52 17-7.93 0.96-15.48 0.61-22.18-0.95-2.17 11.34-6.47 22.41-11.84 30.49-9.31 14.05-20.13 17.14-27.84 17.14z" fill="#9E1919" p-id="9353"></path><path d="M454.78 571.31a5.04 5.04 0 0 0-7.08-0.83c-0.42 0.33-0.71 0.75-1 1.18l-14.12-4.09 10.98-10.54c0.8 0.32 1.65 0.51 2.56 0.38 2.75-0.4 4.66-2.96 4.26-5.71a5.042 5.042 0 0 0-5.71-4.26c-2.75 0.4-4.66 2.96-4.26 5.71 0.06 0.38 0.24 0.69 0.37 1.04l-10.96 10.52-3.3-13.38c0.66-0.53 1.24-1.16 1.57-2a5.025 5.025 0 0 0-2.82-6.54 5.025 5.025 0 0 0-6.54 2.82 5.025 5.025 0 0 0 2.82 6.54c0.37 0.15 0.76 0.15 1.14 0.21l3.28 13.31-14.8-4.29c-0.12-0.86-0.38-1.7-0.95-2.42a5.04 5.04 0 0 0-7.08-0.83 5.04 5.04 0 0 0-0.83 7.08 5.04 5.04 0 0 0 7.08 0.83c0.3-0.23 0.47-0.55 0.7-0.83l14.78 4.28-9.5 9.12c-0.62-0.16-1.29-0.21-1.96-0.11-2.75 0.4-4.66 2.96-4.26 5.71 0.4 2.75 2.96 4.66 5.71 4.26 2.75-0.4 4.66-2.96 4.26-5.71-0.09-0.61-0.32-1.16-0.6-1.67l9.1-8.74 3.13 12.7c-0.75 0.54-1.4 1.22-1.77 2.14a5.025 5.025 0 0 0 2.82 6.54 5.025 5.025 0 0 0 6.54-2.82 5.025 5.025 0 0 0-2.82-6.54c-0.29-0.12-0.6-0.1-0.89-0.16l-3.15-12.81 14.47 4.2c0.16 0.7 0.44 1.38 0.92 1.98 1.72 2.18 4.89 2.56 7.08 0.83s2.55-4.92 0.83-7.1z" fill="#C72B2B" p-id="9354"></path><path d="M792.19 585.43c-2.05 0-3.89-0.21-5.44-0.49-12.31-2.23-24.74-12.05-34.1-26.97-8.59-13.69-12.63-28.73-10.95-40.56-8.91 1.15-18.89 2.37-27.89 1.52-22.43-2.12-27.49-16.33-28.51-24.62-1.49-12.09 3.57-28.32 13.53-43.43 5.01-7.59 18.45-25.38 35.89-27.87-0.08-0.24-0.16-0.48-0.23-0.73-0.41-1.33-0.85-2.69-1.29-4.08-2.79-8.78-5.95-18.72-6.74-28.04-1.91-22.45 11.17-29.96 19.15-32.44 11.63-3.62 28.5-1.53 45.14 5.57 6.17 2.63 18.6 8.8 26.94 18.55 9.2-6.94 17.75-11.93 25.46-14.87 21.71-8.27 33.5 1.05 38.59 7.34 11.13 13.75 9.98 35.38 8.97 44.04-0.81 6.98-3.48 22.26-11.81 33.7 7.08 5.85 16.49 15.02 22.08 26.11 2.98 5.92 0.61 13.13-5.31 16.12-5.92 2.98-13.13 0.6-16.12-5.31-2.94-5.82-8.88-12.65-16.31-18.72-1-0.82-2.28-1.6-3.79-2.33-1.63-0.78-3.52-1.48-5.6-2.08-4.83-1.39-8.28-5.65-8.65-10.67s2.44-9.73 7.03-11.8c1.06-0.48 2.02-0.97 2.86-1.46 0.78-0.46 1.44-0.91 1.99-1.35 3.66-2.96 8.28-12.04 9.79-24.99 1.5-12.9-0.91-22.6-3.79-26.16-0.74-0.91-2.68-3.32-11.38-0.01-6.62 2.52-14.88 7.7-23.88 14.99-0.56 0.46-1.16 1.03-1.77 1.72-0.65 0.73-1.33 1.6-2.02 2.58a12.002 12.002 0 0 1-21.67-4.99c-0.07-0.46-0.16-0.91-0.26-1.36-0.08-0.37-0.17-0.71-0.27-1.02-1.24-4-8.19-10.7-20.51-15.96-12.68-5.42-23.7-6.25-28.59-4.73-1.44 0.45-2.92 0.91-2.36 7.49 0.57 6.64 3.29 15.23 5.7 22.81 0.46 1.44 0.9 2.85 1.33 4.22 0.66 2.14 2.06 4.62 4.03 7.18 2.11 2.73 4.78 5.47 7.96 8.14a12.003 12.003 0 0 1 2.52 15.44c-3.1 5.06-9.42 7.1-14.89 4.8-3.67-1.55-7.37-2.72-10.7-3.39-3.97-0.8-6.59-0.75-8.09-0.57-4.16 0.51-12 6.16-19.37 17.34-7.59 11.51-10.37 22.21-9.75 27.29 0.18 1.49 0.37 3.04 6.95 3.66 6.64 0.62 15.58-0.53 23.47-1.55 1.49-0.19 2.96-0.38 4.38-0.56 2-0.25 4.41-1.03 6.97-2.28 2.75-1.34 5.62-3.16 8.54-5.41 4.89-3.78 11.85-3.23 16.08 1.27 4.23 4.5 4.36 11.48 0.28 16.13-2.8 3.2-5.24 6.57-7.04 9.73-2.15 3.8-2.95 6.47-3.23 8.04-1.08 6 1.91 15.96 7.46 24.8 6.28 10.01 13.59 15.3 18.04 16.11 3.49 0.63 7.15-1.89 10.88-7.5 4.18-6.29 7.7-15.68 9.41-25.12 0.33-1.83 0.33-4.06-0.01-6.61-0.36-2.72-1.09-5.7-2.16-8.86-1.91-5.6 0.55-11.76 5.8-14.51a11.998 11.998 0 0 1 15.22 3.52c0.66 0.9 1.32 1.71 1.96 2.41 0.58 0.64 1.15 1.19 1.69 1.62 4.42 3.62 13.64 5.18 23.47 3.99 6.58-0.8 12.56 3.89 13.35 10.47s-3.89 12.56-10.47 13.35c-9.08 1.1-17.69 0.61-25.2-1.32-0.01 0.07-0.02 0.13-0.04 0.2-2.29 12.69-7.05 25.13-13.04 34.14-9.99 15.03-21.5 18.33-29.68 18.33z" fill="#9E1919" p-id="9355"></path><path d="M838.55 468.96a6.12 6.12 0 0 0-8.59-1.01c-0.51 0.4-0.87 0.92-1.21 1.43l-17.14-4.97 13.33-12.8c0.97 0.39 2 0.62 3.11 0.46a6.119 6.119 0 1 0-1.77-12.11 6.119 6.119 0 0 0-5.17 6.94c0.07 0.46 0.29 0.84 0.45 1.26l-13.31 12.77-4-16.25c0.8-0.64 1.5-1.41 1.91-2.43a6.12 6.12 0 1 0-7.95 3.42c0.45 0.18 0.92 0.18 1.38 0.25l3.98 16.16-17.98-5.21c-0.15-1.04-0.46-2.06-1.16-2.94a6.12 6.12 0 0 0-8.59-1.01 6.12 6.12 0 0 0-1.01 8.59 6.12 6.12 0 0 0 8.59 1.01c0.36-0.28 0.57-0.66 0.85-1l17.95 5.2-11.54 11.08c-0.76-0.19-1.56-0.25-2.38-0.13a6.119 6.119 0 1 0 1.77 12.11 6.119 6.119 0 0 0 5.17-6.94c-0.11-0.74-0.39-1.41-0.73-2.03l11.05-10.61 3.8 15.43c-0.91 0.66-1.7 1.48-2.15 2.59a6.12 6.12 0 1 0 7.95-3.42c-0.36-0.14-0.72-0.13-1.09-0.2l-3.83-15.56 17.58 5.1c0.2 0.85 0.54 1.67 1.12 2.4a6.12 6.12 0 0 0 8.59 1.01 6.112 6.112 0 0 0 1.02-8.59z" fill="#C72B2B" p-id="9356"></path></svg>